<?xml version='1.0' encoding='utf-8'?>
<svg xmlns="http://www.w3.org/2000/svg" width="422.51645mm" height="255.41142mm" viewBox="0 0 422.51645 255.41142" version="1.1" id="svg5" xml:space="preserve"><defs id="defs2" /><g id="layer1"><path style="fill:#000000;stroke-width:1" d="m 215.20999999999913 254.1180000000004 c -1.315,-2.243 -1.905,-5.1042 -1.461,-7.0874 0.206,-0.9182 0.281,-1.9618 0.167,-2.3192 -0.163,-0.5142 0.253,-1.109 1.991,-2.8504 2.217,-2.2216 2.657,-3.0188 3.662,-6.6181 0.461,-1.6491 0.655,-1.8739 3.738,-4.3194 3.937,-3.1227 4.816,-4.0212 4.568,-4.6698 -0.263,-0.6861 -1.206,-0.6252 -7.111,0.4587 -2.839,0.5204 -5.7,0.9477 -6.356,0.9477 -1.346,0 -4.68,-1.5721 -7.045,-3.3207 l -1.501,-1.1098 v -7.0284 c 0,-6.1298 0.1,-7.4923 0.748,-10.6625 0.409,-1.9985 0.724,-3.662 0.698,-3.6951 -0.03,-0.036 -1.332,0.421 -2.904,1.0122 -6.364,2.39 -8.112,2.7546 -12.385,2.5862 -4.112,-0.1622 -5.123,-0.054 -5.123,0.5374 0,0.8501 2.342,5.1804 3.381,6.2517 0.67,0.6907 1.886,1.4458 2.998,1.8615 2.079,0.7775 3.162,2.2296 3.287,4.4027 0.04,0.6083 0.168,2.2574 0.298,3.6647 0.344,3.7471 -0.198,4.4727 -1.093,1.4646 -0.588,-1.9734 -0.935,-2.5279 -2.709,-4.3284 -1.119,-1.1359 -2.169,-2.0648 -2.333,-2.0648 -0.164,0 -0.348,0.9603 -0.41,2.1329 -0.09,1.7432 0.02,2.3872 0.605,3.5231 0.394,0.765 0.717,1.6473 0.717,1.9617 0,0.3145 0.519,0.9684 1.152,1.4539 2.77,2.1212 3.607,3.0072 3.251,3.4371 -0.512,0.6154 -0.108,1.4521 1.133,2.3443 1.86,1.3374 2.709,3.0725 1.076,2.1983 -0.391,-0.2088 -1.57,-0.6119 -2.62,-0.8949 -1.578,-0.4264 -1.942,-0.6531 -2.095,-1.3052 -0.155,-0.6629 -0.394,-0.8044 -1.502,-0.885 -1.105,-0.081 -1.479,-0.3001 -2.317,-1.358 -1.111,-1.4037 -1.566,-1.4422 -0.808,-0.072 0.271,0.49 0.801,1.6411 1.178,2.5575 0.444,1.0749 1.017,1.8596 1.616,2.2117 0.558,0.3278 1.001,0.9038 1.109,1.4422 0.129,0.6405 0.679,1.2245 1.931,2.054 l 1.75,1.1583 -1.215,0.1012 c -2.361,0.1962 -5.406,-1.6913 -8.108,-5.0254 -4.772,-5.888 -4.759,-5.8629 -4.517,-8.1185 0.197,-1.8318 0.145,-2.0809 -0.668,-3.2535 -1.221,-1.762 -1.288,-1.762 -1.873,0 -0.457,1.3769 -0.465,1.6689 -0.06,2.4518 0.464,0.9065 0.282,2.0379 -0.395,2.4562 -0.186,0.1147 -0.337,0.7203 -0.337,1.3455 0,1.444 1.066,2.8728 3.156,4.2272 1.893,1.2264 1.864,1.3321 -0.252,0.9307 -2.39,-0.4532 -4.522,-1.6625 -6.178,-3.5043 -1.627,-1.8103 -1.631,-1.8256 -0.993,-4.7234 0.599,-2.7259 0.588,-4.8686 -0.04,-6.0708 -0.575,-1.1116 -0.466,-2.5691 0.494,-6.5867 0.447,-1.8713 0.514,-2.7841 0.292,-3.9719 -0.256,-1.3634 -1.226,-8.7518 -1.226,-9.3296 0,-0.7077 1.95,-2.3192 3.904,-3.2266 2.523,-1.1708 3.671,-2.5351 7.89,-9.3681 2.756,-4.4646 3.074,-4.8292 5.12,-5.8638 0.973,-0.4927 1.832,-0.9979 1.909,-1.1224 0.08,-0.1246 -0.594,-1.4127 -1.491,-2.8621 -3.383,-5.4589 -3.427,-5.4858 -8.557,-5.2099 -2.941,0.1586 -3.742,0.1165 -3.641,-0.1908 0.07,-0.2167 0.448,-0.5536 0.837,-0.7488 0.388,-0.1953 0.688,-0.4775 0.666,-0.6271 -0.02,-0.1505 0.422,-0.3923 0.986,-0.5384 1.131,-0.2929 0.751,-0.8357 -0.592,-0.8447 -1.101,0 -0.838,-0.5849 0.316,-0.696 1.166,-0.112 1.281,-0.5653 0.275,-1.0785 -0.374,-0.1917 -0.77,-0.4372 -0.878,-0.5456 -0.351,-0.3511 0.58,-1.1609 1.334,-1.1609 0.963,0 1.271,-0.5312 0.459,-0.7883 -0.35,-0.1111 -0.637,-0.3225 -0.637,-0.4694 0,-0.3682 1.861,-1.9017 2.316,-1.9071 0.204,0 0.584,-0.146 0.845,-0.3189 0.402,-0.2652 0.353,-0.4094 -0.317,-0.9469 -0.773,-0.6198 -0.776,-0.644 -0.176,-1.1036 0.338,-0.2588 0.839,-0.4703 1.115,-0.4703 0.595,0 1.905,-0.8662 1.905,-1.2594 0,-0.1523 -0.319,-0.3216 -0.71,-0.3772 -1.259,-0.1791 -0.642,-0.7184 1.38,-1.2066 2.478,-0.5975 2.752,-1.1376 0.516,-1.0185 -2.757,0.1469 -2.815,-0.1639 -0.55,-2.9364 l 1.993,-2.4383 -1.077,0.2302 c -3.171,0.6772 -3.471,1.0633 -5.661,7.2684 -0.735,2.0854 -1.729,4.5739 -2.209,5.5297 -1.238,2.4706 -2.376,5.802 -2.86,8.3747 -0.51,2.7115 -0.45,2.6372 -1.408,1.7378 -0.991,-0.9307 -1.177,-0.7345 -1.356,1.4225 -0.159,1.9197 -0.426,2.1302 -1.201,0.9478 -0.69,-1.0535 -0.988,-0.997 -1.608,0.3027 -0.604,1.2676 -0.887,1.2183 -1.171,-0.2042 -0.113,-0.5617 -0.832,-1.8193 -1.599,-2.7948 -0.767,-0.9765 -1.93,-2.6883 -2.584,-3.8053 -1.348,-2.2986 -4.336,-10.1771 -3.792,-9.9979 0.319,0.1048 1.6,1.6491 2.867,3.4586 0.262,0.3727 0.572,0.5814 0.692,0.4623 0.471,-0.4712 -0.592,-2.7035 -2.286,-4.8023 -2.132,-2.639 -5.028,-7.0212 -5.828,-8.819 -0.49,-1.1001 -0.579,-1.1753 -0.594,-0.5035 0,0.4354 0.487,1.9277 1.104,3.3189 0.618,1.3903 1.21,2.7277 1.313,2.9722 0.285,0.6665 -2.331,-0.971 -4.278,-2.6784 -0.923,-0.8089 -1.757,-1.3893 -1.856,-1.2908 -0.179,0.1792 3.487,3.9217 6.287,6.4174 1.883,1.6796 2.335,3.3431 1.161,4.2711 l -0.756,0.5966 0.734,0.5437 c 3.037,2.2529 3.633,3.2302 1.972,3.2302 -1.449,0 -1.425,0.5223 0.06,1.3939 2.814,1.6482 3.99,3.6593 2.782,4.7521 -0.942,0.8528 -0.806,1.1224 0.565,1.1224 1.093,0 2.261,0.7014 2.261,1.358 0,0.112 -0.748,0.6808 -1.661,1.2649 -2.007,1.2845 -4.368,3.8429 -5.276,5.7205 -0.729,1.5049 -1.243,5.8387 -1.279,10.7754 l -0.02,2.8441 -1.288,-2.5279 c -5.535,-10.8587 -15.662,-20.5852 -29.187,-28.0318 -6.683,-3.6799 -9.146,-4.4933 -12.926,-4.272 -5.016,0.2938 -8.11,1.8874 -13.212,6.8053 -3.824,3.687 -4.128,4.4027 -4.091,9.6422 0.02,2.2905 0.177,4.9331 0.357,5.8737 0.181,0.9405 0.28,1.7584 0.221,1.8166 -0.06,0.063 -0.645,-0.8752 -1.302,-2.0755 -4.573,-8.3434 -14.854,-17.2941 -25.686,-22.3642 -7.926,-3.7094 -15.822,-4.3365 -26.63,-2.1167 -16.362,3.361 -28.237,11.5296 -30.721,21.1342 l -0.572,2.2117 0.157,-8.0585 c 0.196,-10.0032 0.508,-13.314 1.915,-20.2626 4.496,-22.194 7.088,-47.0511 5.894,-56.5285 -0.655,-5.1983 -2.274,-8.8074 -4.673,-10.4207 -3.811,-2.5628 -11.983,0.1344 -18.756,6.1926 l -1.726,1.5425 1.554,-2.2126 c 2.751,-3.9146 4.027,-5.6354 6.097,-8.2161 12.719,-15.859 28.936,-30.4253 47.196,-42.3948 l 4.945,-3.2401 0.126,-1.5156 c 0.201,-2.4106 -0.03,-2.9794 -2.121,-5.0272 -3.026,-2.9767 -4.729,-3.6691 -9.42,-3.8295 -3.106,-0.1066 -4.299,-0.01 -6.205,0.4847 l -2.359,0.6171 0.937,-0.7488 c 0.516,-0.4121 1.814,-1.1001 2.885,-1.5291 1.832,-0.7346 9.331,-3.017 9.911,-3.017 0.372,0 4.487,3.3027 6.891,5.5305 1.595,1.4781 2.323,2.4939 3.581,5.0021 3.072,6.1209 2.633,5.7447 14.643,12.5356 11.487,6.4962 12.184,6.8259 20.582,9.7551 4.021,1.4019 8.043,2.8388 8.939,3.1917 3.958,1.5605 5.689,0.3565 6.191,-4.3051 0.331,-3.0636 -0.298,-7.1117 -1.437,-9.2481 -1.159,-2.1741 -4.509,-6.447 -6.215,-7.9286 -0.66,-0.5715 -2.515,-2.2879 -4.122,-3.8125 l -2.923,-2.7724 v -2.1571 c 0,-2.7608 -0.722,-5.7868 -1.872,-7.9107 -1.098,-2.0271 -0.858,-2.1391 0.67,-0.3108 2.576,3.0824 5.52,8.5556 5.179,9.6297 -0.243,0.7668 0.106,1.0651 6.93,5.9211 8.75,6.2248 8.078,5.1526 9.796,15.6359 1.288,7.8525 1.917,10.7477 2.701,12.4031 l 0.56,1.1842 -0.892,0.6351 c -2.105,1.4996 -2.601,4.1959 -1.772,9.6369 0.923,6.0591 1.269,6.7345 13.599,26.5457 4.651,7.4735 9.191,14.7956 10.087,16.271 2.402,3.9522 5.334,6.7408 9.373,8.9175 1.826,0.9836 3.692,1.995 4.15,2.2467 0.878,0.4846 1.447,1.899 2.163,5.3756 0.751,3.644 0.649,1.4583 -0.132,-2.8298 -1.111,-6.1039 -1.451,-10.2827 -1.08,-13.2746 0.169,-1.3581 0.348,-2.51 0.399,-2.5611 0.05,-0.054 0.182,1.2684 0.291,2.931 0.146,2.2287 0.492,3.9003 1.313,6.3556 1.505,4.4959 1.635,4.6912 1.908,2.8692 0.221,-1.4682 0.04,-2.922 -0.969,-7.4986 -0.601,-2.7483 -0.479,-9.7139 0.208,-11.8503 l 0.407,-1.264 0.233,2.6139 c 0.267,3.0018 1.103,6.1863 1.549,5.9104 0.402,-0.2481 0.386,-2.991 -0.03,-6.0054 -0.434,-3.1173 -0.24,-3.2552 0.67,-0.4783 0.402,1.2236 0.821,2.2251 0.933,2.2251 0.111,0 0.511,-0.6199 0.89,-1.3777 0.61,-1.2209 0.688,-1.8937 0.694,-5.9247 0,-5.0648 0.579,-9.8223 1.557,-12.9226 0.674,-2.1409 1.507,-3.739 1.152,-2.2117 -0.704,3.0349 -0.886,5.2439 -0.719,8.6739 0.158,3.2051 0.863,7.2335 1.355,7.736 0.495,0.5052 5.818,-8.0262 7.149,-11.4616 2.261,-5.8333 4.455,-9.5222 7.977,-13.4144 1.573,-1.7369 2.28,-2.0226 1.19,-0.4792 -1.899,2.69 -3.831,8.2376 -4.489,12.8957 -0.447,3.163 -0.414,4.582 0.106,4.582 0.536,0 3.603,-3.8215 6.596,-8.2162 4.68,-6.8751 9.975,-13.3687 12.649,-15.5105 l 1.339,-1.0731 -1.149,1.418 c -3.144,3.8823 -6.044,9.4201 -7.942,15.1656 -1.73,5.2368 -1.722,5.1544 -0.482,4.8892 7.63,-1.6303 14.38,-8.7724 16.167,-17.105 0.634,-2.9534 0.663,-1.1144 0.06,3.7471 -1.026,8.2645 -3.162,14.5009 -6.391,18.6601 -1.668,2.1472 -1.371,2.2394 1.745,0.5401 5.696,-3.1039 10.09,-7.7414 12.241,-12.9172 0.918,-2.2054 0.963,-1.5336 0.106,1.5596 -1.232,4.4511 -5.005,11.1283 -10.513,18.6045 -0.819,1.1108 -1.423,2.0854 -1.344,2.1642 0.748,0.748 7.968,-5.4123 11.016,-9.3985 1.687,-2.2064 1.714,-1.9475 0.189,1.7638 -2.007,4.8829 -5.558,9.1728 -10.833,13.0847 -2.911,2.1597 -7.433,6.6996 -6.862,6.8895 0.262,0.09 3.429,-1.2049 8.732,-3.5635 l 1.895,-0.8429 -2.72,2.6318 c -4.187,4.0499 -6.259,7.0292 -6.279,9.0277 v 0.7077 l 2.449,-0.911 c 1.348,-0.5007 3.018,-1.1547 3.713,-1.453 l 1.264,-0.5428 -1.174,1.1457 c -1.273,1.2416 -2.964,3.8958 -2.67,4.1896 0.636,0.636 3.298,-0.4255 7.372,-2.9391 6.486,-4.0015 6.561,-4.0301 4.437,-1.6823 -2.652,2.9301 -2.561,2.9794 2.122,1.1502 2.206,-0.8626 2.916,-1.3661 6.004,-4.2612 4.527,-4.2443 4.737,-4.3329 3.255,-1.3858 -0.668,1.3293 -1.074,2.4634 -0.904,2.5198 0.17,0.054 4.907,-2.8011 10.527,-6.3502 5.619,-3.55 11.639,-7.2702 13.378,-8.2681 4.084,-2.3451 3.949,-2.209 3.949,-3.9567 0,-1.341 -0.989,-9.7524 -1.896,-16.1187 -0.186,-1.3034 -0.903,-6.8492 -1.595,-12.3242 -2.485,-19.6652 -3.556,-22.4654 -9.133,-23.879 l -1.438,-0.3645 -0.22,-1.9654 c -0.315,-2.8011 -0.65,-3.6754 -3.611,-9.421 -2.791,-5.415 -3.086,-6.5311 -2.182,-8.2788 0.452,-0.8752 4.137,-4.0803 10.911,-9.4926 6.53,-5.2162 6.963,-5.6408 6.591,-6.456 -0.244,-0.5356 -0.2,-1.2344 0.167,-2.6685 0.544,-2.1239 3.378,-9.6073 3.566,-9.4183 0.06,0.063 -0.05,0.8734 -0.243,1.7987 -0.49,2.2825 -0.217,5.682 0.675,8.4366 l 0.74,2.2833 -5.212,5.3004 c -7.156,7.28 -9.438,10.3561 -9.438,12.7273 0,1.0776 1.425,4.0668 2.463,5.1651 1.107,1.1717 3.577,2.4195 4.787,2.4195 0.989,0 19.669,-7.3266 24.251,-9.5115 2.659,-1.2684 17.827,-11.2403 22.454,-14.7625 1.67,-1.272 2.894,-2.4921 3.451,-3.4434 0.986,-1.6832 2.314,-5.9892 2.314,-7.504 0,-0.8984 0.577,-1.5864 4.82,-5.7518 2.65,-2.6023 5.175,-4.9636 5.609,-5.2466 1.425,-0.9281 16.95,0.072 20.29,1.3078 0.437,0.1622 -1.437,0.335 -4.976,0.4587 -5.414,0.1899 -9.04,0.6297 -12.152,1.4726 -1.474,0.3996 -3.223,1.9941 -7.378,6.7265 l -1.798,2.0477 0.343,1.5981 c 0.395,1.8418 -0.23,1.5972 6.619,2.5951 24.715,3.6002 51.727,10.7217 75.024,19.7772 5.691,2.2116 15.722,6.4998 15.567,6.6538 -0.06,0.063 -1.455,-0.2427 -3.088,-0.6843 -8.787,-2.3757 -19.426,-3.1881 -23.113,-1.7629 -4.598,1.7763 -5.413,5.0728 -2.607,10.5496 3.589,7.0059 18.668,26.0235 29.865,37.6651 5.917,6.1522 9.213,10.5219 14.708,19.503 2.76,4.5094 3.318,5.8065 1.394,3.2383 -2.158,-2.8791 -7.177,-6.6038 -10.987,-8.1517 -6.312,-2.5655 -20.196,-4.2585 -31.98,-3.9011 -12.012,0.3637 -18.232,2.2466 -25.597,7.7467 -6.335,4.7307 -13.539,13.2182 -14.024,16.5237 -0.403,2.7456 -1.461,13.7144 -1.461,15.1441 0,2.3712 -0.373,2.0693 -1.126,-0.9119 -1.211,-4.7871 -2.728,-6.9504 -6.786,-9.6727 -4.329,-2.905 -12.745,-6.283 -16.675,-6.6942 -2.381,-0.249 -4.565,0.688 -8.588,3.6835 -11.904,8.8647 -19.712,22.6078 -22.081,38.8681 -0.524,3.5975 -0.994,5.5171 -0.994,4.0606 0,-1.582 -4.945,-9.9558 -6.947,-11.7644 -4.295,-3.8805 -22.371,-5.0423 -28.646,-1.8408 -2.653,1.3535 -4.541,4.5354 -4.541,7.6527 0,1.3876 0.308,1.6903 3.559,3.4962 l 2.452,1.3625 1.58,3.0762 c 2.525,4.916 3.447,5.2349 8.526,2.9534 5.089,-2.2861 6.741,-1.8149 15.148,4.3203 3.791,2.7653 4.022,2.8836 6.479,3.3055 1.401,0.24 3.322,0.8286 4.268,1.3078 1.604,0.8116 1.829,1.0759 3.318,3.8716 l 1.598,3.0009 2.37,1.1797 c 1.304,0.6495 3.152,1.3939 4.108,1.6554 1.191,0.3252 2.399,1.0087 3.834,2.1705 2.243,1.814 3.664,2.278 5.888,1.9224 0.956,-0.1532 1.306,-0.063 1.787,0.4703 0.328,0.3628 0.869,0.6602 1.202,0.6602 1.808,0 5.302,3.4658 5.302,5.2609 0,0.438 -0.211,0.3512 -1.028,-0.4228 -2.091,-1.986 -4.003,-2.4858 -4.964,-1.2989 l -0.563,0.6942 -1.004,-0.8447 c -1.747,-1.4709 -8.242,-2.8387 -8.242,-1.736 0,0.2616 1.6,1.9322 3.556,3.7121 3.946,3.5939 5.252,5.5342 5.278,7.839 0.02,1.5462 -0.949,4.1439 -1.142,3.0708 -0.647,-3.6029 -0.78,-3.9495 -1.51,-3.9495 -0.494,0 -1.751,-1.0096 -3.939,-3.1604 -2.791,-2.7455 -4.139,-3.7067 -4.139,-2.9525 0,0.1147 0.587,1.4817 1.303,3.0376 1.192,2.5853 1.287,2.9794 1.099,4.5694 -0.24,2.0415 -1.245,4.5417 -2.155,5.3559 -0.632,0.5671 -0.64,0.5617 -0.464,-0.3726 0.1,-0.5214 0.266,-1.7486 0.374,-2.7277 0.194,-1.7629 0.186,-1.7826 -0.76,-2.1122 -0.607,-0.2123 -1.005,-0.5993 -1.093,-1.0642 -0.674,-3.5787 -1.302,-5.6506 -2.032,-6.7104 -1.388,-2.0137 -1.644,-1.848 -1.644,1.0642 0,1.9824 -0.107,2.605 -0.471,2.7456 -0.309,0.1183 -0.411,0.4264 -0.294,0.8931 0.263,1.0481 -0.596,2.8146 -1.778,3.6566 l -1.035,0.7372 0.245,-1.0848 c 0.714,-3.1746 0.716,-3.2749 0.05,-4.0167 -0.58,-0.6521 -0.604,-0.8536 -0.261,-2.1382 0.777,-2.9059 0.382,-4.4494 -1.415,-5.5333 -0.664,-0.4004 -2.985,-2.3881 -5.159,-4.4171 -5.434,-5.0755 -6.06,-5.3532 -8.871,-3.9289 -0.87,0.4407 -3.319,1.4207 -5.44,2.1777 -2.123,0.7569 -4.996,1.8874 -6.387,2.5126 -2.804,1.2604 -4.005,1.3751 -6.953,0.6638 -2.267,-0.5473 -4.086,-0.3359 -3.794,0.4399 2.875,7.632 2.474,7.1833 8.219,9.1997 2.085,0.7318 3.906,1.4377 4.045,1.5694 0.14,0.1308 -0.571,0.3278 -1.579,0.438 -2.24,0.2437 -4.204,0.7776 -4.204,1.1413 0,0.6548 2.941,4.0982 3.871,4.5326 0.565,0.2643 3.504,1.0176 6.532,1.6742 3.848,0.8349 5.322,1.2703 4.898,1.4458 -0.333,0.138 -1.389,0.542 -2.345,0.8967 -3.499,1.2998 -3.619,2.0128 -0.601,3.5617 1.504,0.7712 2.254,0.9128 6.29,1.1869 2.52,0.172 5.221,0.4004 6.004,0.5088 l 1.422,0.1962 -2.528,0.8384 c -1.39,0.4613 -2.945,1.0642 -3.455,1.341 l -0.926,0.5025 1.378,0.8698 c 2.538,1.6026 3.092,1.7101 9.951,1.9385 l 6.538,0.2168 -2.829,1.135 c -1.556,0.6243 -3.161,1.3607 -3.568,1.6366 l -0.738,0.5025 1.491,0.8752 c 1.649,0.9656 1.367,0.9495 9.76,0.5518 4.65,-0.2195 5.166,-0.1308 3.097,0.533 -0.608,0.1953 -1.675,0.7005 -2.37,1.1215 l -1.264,0.7659 1.58,0.713 c 2.255,1.0185 4.274,0.9334 10.094,-0.4228 2.772,-0.6458 5.078,-1.1358 5.124,-1.0892 0.05,0.045 -1.332,0.8357 -3.063,1.7521 -1.732,0.9173 -3.149,1.7172 -3.149,1.7763 0,0.063 0.94,0.422 2.088,0.8045 2.574,0.8563 3.153,0.8017 11.105,-1.0436 3.346,-0.7776 6.083,-1.3777 6.083,-1.3356 0,0.045 -1.06,0.8097 -2.357,1.7064 -2.786,1.926 -2.974,2.1598 -1.942,2.4195 1.723,0.4318 4.465,-0.098 7.937,-1.5335 1.914,-0.791 3.9,-1.5444 4.416,-1.6743 0.898,-0.2248 0.874,-0.1746 -0.556,1.1762 -1.71,1.6151 -1.866,2.1696 -0.611,2.1696 0.762,0 4.362,-2.1875 9.23,-5.6076 l 0.79,-0.5545 -0.619,0.9477 c -1.083,1.6545 -1.737,3.086 -1.548,3.3906 0.739,1.195 6.863,-3.0367 8.707,-6.0161 l 0.722,-1.1663 0.203,0.9477 c 0.111,0.5214 0.219,1.4816 0.24,2.1329 0.03,0.7587 0.189,1.1851 0.46,1.1851 0.712,0 4.049,-2.4777 6.258,-4.6473 l 2.098,-2.0612 -0.164,1.4583 c -0.1,0.8582 -0.03,1.4583 0.147,1.4583 0.494,0 3.34,-3.1486 4.695,-5.1955 l 1.238,-1.8695 0.1,1.478 c 0.05,0.8134 0.216,1.479 0.362,1.479 0.359,0 2.048,-2.6722 2.796,-4.4243 l 0.606,-1.4225 0.23,1.3419 c 0.126,0.7372 0.353,1.4171 0.504,1.5103 0.293,0.1809 1.248,-2.6919 1.256,-3.7785 0,-1.4314 0.515,-1.4843 1.079,-0.1128 l 0.557,1.3553 0.594,-1.264 c 0.755,-1.6088 0.749,-2.5064 -0.03,-4.2218 -0.853,-1.8793 -0.804,-1.9277 0.575,-0.5814 0.935,0.9138 1.283,1.0875 1.579,0.791 0.521,-0.5204 0.481,-1.1412 -0.217,-3.386 -0.657,-2.1087 -0.593,-2.2637 0.503,-1.2335 0.565,0.5303 0.823,0.6046 1.107,0.3198 0.404,-0.4031 0,-1.4252 -1.363,-3.4927 l -0.7,-1.0597 1.276,0.6512 c 0.702,0.3583 1.361,0.5679 1.463,0.4658 0.431,-0.4308 -1.112,-2.3129 -3.126,-3.8133 -1.178,-0.8779 -0.454,-0.9137 1.407,-0.072 2.854,1.2944 1.79,-0.7901 -1.361,-2.665 -2.278,-1.3553 -2.209,-1.8229 0.149,-1.0104 2.566,0.8841 1.877,-0.1998 -1.233,-1.9394 -2.198,-1.229 -2.157,-1.6375 0.108,-1.0669 2.615,0.6584 2.623,0.2751 0.03,-1.3848 -1.839,-1.1762 -4.476,-2.0577 -6.171,-2.0621 h -1.127 l 1.365,-0.8179 c 0.75,-0.4497 1.295,-0.8877 1.21,-0.9728 -0.296,-0.2965 -3.849,0.6118 -5.34,1.3652 -1.798,0.9083 -1.949,0.5303 -0.323,-0.8098 l 1.178,-0.9711 h -0.869 c -1.179,0 -4.473,1.5417 -6.306,2.9508 -1.694,1.3015 -1.854,1.1914 -0.712,-0.49 1.054,-1.5506 1.024,-2.0496 -0.08,-1.3491 -1.539,0.9773 -3.98,2.9068 -6.057,4.7862 l -2.023,1.831 1.351,-2.1409 c 0.745,-1.178 1.284,-2.2108 1.199,-2.295 -0.08,-0.09 -0.898,0.455 -1.807,1.1994 -0.909,0.7444 -2.209,1.8023 -2.888,2.3506 -0.697,0.5607 -1.959,1.1654 -2.892,1.3839 -2.051,0.4811 -2.396,0.7498 -3.152,2.4545 -0.932,2.1033 -0.124,6.3798 1.861,9.8491 l 0.82,1.4324 -1.96,-1.8955 c -2.434,-2.355 -2.659,-2.7841 -3.351,-6.3815 -0.482,-2.5145 -0.498,-2.9866 -0.113,-3.5035 2.752,-3.6951 5.342,-7.2388 6.014,-8.226 0.712,-1.0462 1.223,-1.3562 3.634,-2.2063 6.744,-2.3774 12.671,-3.765 17.343,-4.0615 2.513,-0.1585 3.093,-0.09 4.975,0.6038 6.473,2.3801 11.285,7.7871 12.736,14.3128 0.758,3.4058 0.526,9.9155 -0.455,12.7802 -2.832,8.2672 -9.989,17.2376 -17.873,22.4018 -18.384,12.042 -45.953,15.8805 -71.401,9.9423 -18.76,-4.3777 -37.578,-13.7001 -50.911,-25.2208 -2.673,-2.3102 -4.741,-3.5939 -5.143,-3.1917 -0.176,0.1756 0.04,0.9298 1.038,3.6521 0.399,1.0857 0.495,2.2081 0.404,4.7405 -0.112,3.163 -0.171,3.4031 -1.246,5.1239 -0.702,1.1224 -1.27,2.5566 -1.502,3.7919 -0.205,1.0928 -0.522,2.3684 -0.705,2.8351 -0.249,0.6369 -0.211,1.2613 0.153,2.5046 0.348,1.1843 0.395,1.8265 0.164,2.2574 -0.177,0.3306 -0.249,0.7928 -0.159,1.0257 0.241,0.627 2.966,2.1382 4.277,2.372 l 1.139,0.2034 -1.264,0.3699 c -2.978,0.8707 -4.919,0.3091 -6.915,-2.0021 l -1.508,-1.7476 0.34,-1.5883 c 0.404,-1.8865 0.444,-5.9623 0.06,-6.5634 -0.311,-0.4909 -1.072,0.4524 -2.251,2.794 -0.394,0.782 -1.119,2.0092 -1.611,2.7268 -0.751,1.0964 -0.849,1.461 -0.613,2.2806 0.221,0.7731 0.154,1.1359 -0.327,1.7468 -0.335,0.4246 -0.608,1.0167 -0.608,1.3168 0,0.8223 1.173,2.5521 2.437,3.5939 l 1.126,0.928 -1.361,-0.3054 c -1.88,-0.4228 -3.023,-1.1637 -3.945,-2.5557 -0.432,-0.6521 -0.785,-1.2747 -0.785,-1.384 0,-0.1093 -0.355,-0.6208 -0.79,-1.1367 -1.022,-1.2147 -0.999,-1.4602 0.459,-4.8364 1.187,-2.7518 1.346,-3.7175 0.495,-3.0116 -0.427,0.3547 -0.64,0.8259 -1.756,3.876 -0.607,1.6581 -0.748,1.8176 -1.608,1.8176 -0.807,0 -1.029,0.1935 -1.531,1.3428 -0.867,1.9823 -1.081,4.5309 -0.531,6.3197 0.572,1.866 0.171,1.9349 -0.875,0.1505 z m -37.539,-95.7558 c 1.08,-1.1009 1.33,-1.5757 1.33,-2.5279 0,-1.5139 -0.271,-1.478 -1.856,0.2419 -1.014,1.0991 -1.304,1.6625 -1.304,2.5279 0,1.4305 0.217,1.401 1.83,-0.2419 z m 5.384,-6.7399 c 0.862,-0.1729 1.089,-0.4721 1.975,-2.6076 1.556,-3.7507 4.425,-9.0215 5.489,-10.0857 0.07,-0.072 -0.43,1.4548 -1.111,3.3888 -1.417,4.0221 -2.883,9.0662 -2.519,8.664 1.825,-2.0164 7.597,-14.9972 7.597,-17.0862 0,-0.2606 -1.174,0.6316 -2.608,1.9815 -3.371,3.1747 -6.035,5.3882 -7.224,6.0027 -0.893,0.4622 -0.935,0.5679 -0.74,1.8739 0.261,1.7361 -0.451,4.0015 -1.937,6.1621 -0.594,0.8636 -1.081,1.6438 -1.081,1.7352 0,0.2221 0.968,0.2096 2.159,-0.027 z m -156.069,-16.5039 c 2.876,-9.1549 9.29,-26.1946 11.616,-30.8616 1.391,-2.7913 0.932,-2.3577 -1.173,1.1063 -5.884,9.6816 -10.917,23.7876 -13.888,38.9254 -1.645,8.3756 -1.593,8.6748 0.29,1.6823 0.843,-3.129 2.262,-8.0128 3.155,-10.8524 z m 136.647,14.4069 c 0.405,-1.5112 0.119,-2.2314 -2.317,-5.8361 -1.384,-2.0477 -3.301,-5.2161 -4.26,-7.0408 -0.958,-1.8256 -1.746,-3.0654 -1.749,-2.7555 0,0.5913 1.797,5.5279 2.219,6.0735 0.135,0.1737 1.271,2.3774 2.526,4.8981 2.885,5.7931 3.176,6.172 3.581,4.6608 z m -69.008,-6.988 c 0,-8.9982 8.572,-49.5029 13.837,-65.3789 0.677,-2.0424 1.184,-3.713 1.126,-3.713 -0.05,0 -0.742,1.272 -1.523,2.8262 -8.032,15.9915 -12.535,34.6776 -13.751,57.0579 -0.4,7.3786 -0.402,10.5864 0,10.5864 0.174,0 0.317,-0.6199 0.317,-1.3786 z m 87.122,-2.063 c 2.203,-1.5954 2.519,-2.2207 2.763,-5.4751 0.556,-7.4063 2.591,-17.2223 4.341,-20.9461 l 0.297,-0.6324 -0.53,0.6324 c -1.022,1.2201 -2.943,5.725 -4.043,9.4801 -1.311,4.4735 -2.698,8.4831 -4.184,12.0913 -1.132,2.7518 -1.268,3.6315 -0.766,4.9528 0.389,1.0248 0.579,1.0158 2.122,-0.103 z m 138.973,-34.0694 c -8.302,-13.658 -16.331,-24.1978 -25.254,-33.1494 -9.582,-9.6145 -16.489,-14.2197 -26.433,-17.6237 -4.692,-1.6061 -4.779,-1.4458 -0.495,0.911 13.759,7.5667 28.735,21.6664 46.319,43.6059 3.064,3.8232 6.136,7.7602 6.826,8.7474 2.113,3.0277 1.626,1.7683 -0.963,-2.4912 z m -284.652,-6.0985 c 7.318,-9.1881 20.424,-22.8569 26.64,-27.7855 1.825,-1.4467 3.389,-2.7088 3.476,-2.8047 0.09,-0.096 -0.695,0.2974 -1.738,0.8743 -10.276,5.6811 -24.158,20.1973 -30.988,32.4023 -1.119,2.0003 -1.142,2.0236 2.61,-2.6864 z m 365.573,-13.3517 c -9.531,-9.9826 -21.293,-18.841 -32.44,-24.4316 -4.005,-2.0084 -4.461,-1.8883 -0.976,0.2562 8.83,5.4365 25.759,17.999 33.249,24.6744 1.478,1.3168 2.747,2.4007 2.822,2.4087 0.07,0.01 -1.119,-1.2997 -2.655,-2.9077 z m -23.666,-23.3943 c -3.751,-2.9059 -16.618,-9.7829 -24.693,-13.1949 -8.678,-3.6682 -19.386,-6.9674 -28.649,-8.8271 -6.233,-1.2505 -6.435,-1.1878 -1.019,0.318 13.405,3.7274 43.806,15.8913 52.736,21.1011 2.502,1.4593 2.939,1.6214 1.625,0.6029 z" id="path70" /></g></svg>